<svg xmlns="http://www.w3.org/2000/svg" xmlns:xlink="http://www.w3.org/1999/xlink" width="80" zoomAndPan="magnify" viewBox="0 0 60 60" height="80" preserveAspectRatio="xMidYMid meet" version="1.0"><defs><clipPath id="3d6ed63924"><path d="M 0.835938 29 L 59.335938 29 L 59.335938 42.628906 L 0.835938 42.628906 Z M 0.835938 29 " clip-rule="nonzero"/></clipPath><clipPath id="ec93ff4099"><path d="M 7 17.128906 L 17 17.128906 L 17 24 L 7 24 Z M 7 17.128906 " clip-rule="nonzero"/></clipPath></defs><g clip-path="url(#3d6ed63924)"><path fill="#27547d" d="M 39.445312 37.574219 C 39.042969 37.574219 38.714844 37.25 38.714844 36.847656 C 38.714844 36.441406 39.042969 36.117188 39.445312 36.117188 C 39.847656 36.117188 40.175781 36.441406 40.175781 36.847656 C 40.175781 37.25 39.847656 37.574219 39.445312 37.574219 Z M 35.25 37.574219 C 34.847656 37.574219 34.519531 37.25 34.519531 36.847656 C 34.519531 36.441406 34.847656 36.117188 35.25 36.117188 C 35.652344 36.117188 35.980469 36.441406 35.980469 36.847656 C 35.980469 37.25 35.652344 37.574219 35.25 37.574219 Z M 31.054688 37.574219 C 30.652344 37.574219 30.324219 37.25 30.324219 36.847656 C 30.324219 36.441406 30.652344 36.117188 31.054688 36.117188 C 31.457031 36.117188 31.78125 36.441406 31.78125 36.847656 C 31.78125 37.25 31.457031 37.574219 31.054688 37.574219 Z M 26.859375 37.574219 C 26.457031 37.574219 26.128906 37.25 26.128906 36.847656 C 26.128906 36.441406 26.457031 36.117188 26.859375 36.117188 C 27.261719 36.117188 27.585938 36.441406 27.585938 36.847656 C 27.585938 37.25 27.261719 37.574219 26.859375 37.574219 Z M 22.660156 37.574219 C 22.257812 37.574219 21.933594 37.25 21.933594 36.847656 C 21.933594 36.441406 22.257812 36.117188 22.660156 36.117188 C 23.066406 36.117188 23.390625 36.441406 23.390625 36.847656 C 23.390625 37.25 23.066406 37.574219 22.660156 37.574219 Z M 18.464844 37.574219 C 18.0625 37.574219 17.738281 37.25 17.738281 36.847656 C 17.738281 36.441406 18.0625 36.117188 18.464844 36.117188 C 18.871094 36.117188 19.195312 36.441406 19.195312 36.847656 C 19.195312 37.25 18.871094 37.574219 18.464844 37.574219 Z M 53.445312 32.753906 L 53.445312 31.5 L 58.707031 31.5 C 58.921875 30.847656 59.019531 30.4375 59.019531 30.4375 C 59.15625 29.738281 58.6875 29.167969 57.972656 29.167969 C 57.972656 29.167969 48.441406 29.167969 45.261719 29.167969 C 44.53125 29.167969 44.222656 29.554688 44.066406 29.917969 C 43.621094 30.953125 42.65625 32.714844 42.117188 33.574219 C 41.367188 34.765625 38.878906 34.535156 26.101562 34.695312 C 18.691406 34.789062 15.800781 34.867188 13.867188 34.816406 C 12.835938 34.789062 12.300781 34.683594 12.097656 34.363281 C 11.925781 34.097656 11.925781 33.792969 11.875 33.347656 C 11.75 32.242188 11.71875 31.871094 11.71875 31.871094 C 11.652344 31.164062 11.015625 30.582031 10.304688 30.582031 L 2.226562 30.582031 C 1.515625 30.582031 0.835938 31.003906 0.867188 31.707031 C 0.890625 32.152344 0.933594 32.554688 1.5 33.574219 C 2.375 35.148438 3.277344 35.179688 3.601562 38.847656 C 3.707031 40.042969 3.78125 40.847656 3.828125 41.390625 C 3.925781 42.511719 4.585938 42.691406 4.988281 42.753906 C 5.433594 42.824219 5.902344 42.867188 6.273438 42.867188 C 6.273438 42.867188 38.394531 42.867188 43.734375 42.867188 C 49.074219 42.867188 50.511719 42.402344 53.90625 39.394531 C 56.121094 37.429688 57.492188 34.6875 58.253906 32.753906 L 53.445312 32.753906 " fill-opacity="1" fill-rule="nonzero"/></g><path fill="#479be8" d="M 43.65625 28.671875 L 43.613281 28.027344 L 48.472656 28.027344 L 48.472656 26.453125 L 41.917969 26.453125 L 41.917969 30.625 L 42.75 30.625 C 43.214844 29.742188 43.597656 28.941406 43.65625 28.671875 " fill-opacity="1" fill-rule="nonzero"/><path fill="#479be8" d="M 41.148438 21.453125 L 34.59375 21.453125 L 34.59375 25.625 L 41.148438 25.625 L 41.148438 21.453125 " fill-opacity="1" fill-rule="nonzero"/><path fill="#479be8" d="M 42.304688 31.453125 L 41.917969 31.453125 L 41.917969 32.140625 C 42.046875 31.921875 42.175781 31.6875 42.304688 31.453125 " fill-opacity="1" fill-rule="nonzero"/><path fill="#479be8" d="M 55.796875 28.027344 L 55.796875 26.453125 L 49.246094 26.453125 L 49.246094 28.027344 L 55.796875 28.027344 " fill-opacity="1" fill-rule="nonzero"/><path fill="#479be8" d="M 48.472656 21.453125 L 41.917969 21.453125 L 41.917969 25.625 L 48.472656 25.625 L 48.472656 21.453125 " fill-opacity="1" fill-rule="nonzero"/><path fill="#479be8" d="M 33.820312 26.453125 L 27.269531 26.453125 L 27.269531 30.625 L 33.820312 30.625 L 33.820312 26.453125 " fill-opacity="1" fill-rule="nonzero"/><path fill="#479be8" d="M 30.023438 33.507812 C 31.445312 33.492188 32.699219 33.480469 33.820312 33.464844 L 33.820312 31.453125 L 27.269531 31.453125 L 27.269531 33.542969 L 30.023438 33.507812 " fill-opacity="1" fill-rule="nonzero"/><path fill="#479be8" d="M 41.148438 33.007812 L 41.148438 31.453125 L 34.59375 31.453125 L 34.59375 33.449219 C 38.339844 33.390625 40.332031 33.296875 41.148438 33.007812 " fill-opacity="1" fill-rule="nonzero"/><path fill="#479be8" d="M 41.148438 26.453125 L 34.59375 26.453125 L 34.59375 30.625 L 41.148438 30.625 L 41.148438 26.453125 " fill-opacity="1" fill-rule="nonzero"/><g clip-path="url(#ec93ff4099)"><path fill="#27547d" d="M 13.777344 19.507812 L 12 19.507812 L 12 18.535156 L 13.777344 18.535156 Z M 11.074219 19.507812 L 9.292969 19.507812 L 9.292969 18.535156 L 11.074219 18.535156 Z M 14.777344 20.304688 L 14.777344 18.535156 L 16.910156 18.535156 L 16.910156 18.425781 C 16.910156 17.714844 16.328125 17.132812 15.613281 17.132812 L 8.300781 17.132812 C 7.589844 17.132812 7.007812 17.714844 7.007812 18.425781 L 7.007812 18.535156 L 8.371094 18.535156 L 8.371094 19.507812 L 7.007812 19.507812 L 7.007812 23.363281 L 16.910156 23.363281 L 16.910156 20.304688 L 14.777344 20.304688 " fill-opacity="1" fill-rule="nonzero"/></g><path fill="#27547d" d="M 17.488281 26.839844 L 15.265625 26.839844 L 15.265625 25.625 L 17.488281 25.625 Z M 14.109375 26.839844 L 11.886719 26.839844 L 11.886719 25.625 L 14.109375 25.625 Z M 10.730469 26.839844 L 8.507812 26.839844 L 8.507812 25.625 L 10.730469 25.625 Z M 18.738281 27.839844 L 18.738281 25.625 L 21.304688 25.625 C 21.304688 24.914062 20.722656 24.332031 20.011719 24.332031 L 5.679688 24.332031 C 4.96875 24.332031 4.382812 24.914062 4.382812 25.625 L 7.195312 25.625 L 7.195312 26.839844 L 4.382812 26.839844 L 4.382812 28.148438 C 4.382812 28.863281 4.96875 29.445312 5.679688 29.445312 L 11.304688 29.445312 C 12.296875 29.441406 12.589844 29.613281 12.660156 30.089844 C 12.707031 30.414062 12.710938 30.613281 12.777344 31.320312 C 12.777344 31.320312 12.828125 31.832031 12.890625 32.394531 C 12.953125 32.960938 13.265625 33.417969 13.671875 33.445312 C 14.441406 33.5 15.046875 33.550781 15.757812 33.550781 L 20.011719 33.550781 C 20.722656 33.550781 21.304688 32.96875 21.304688 32.257812 L 21.304688 27.839844 L 18.738281 27.839844 " fill-opacity="1" fill-rule="nonzero"/></svg>